M48
;DRILL file {KiCad 4.0.7-e2-6376~58~ubuntu16.04.1} date Sat Dec  9 11:07:42 2023
;FORMAT={-:-/ absolute / inch / decimal}
FMAT,2
INCH,TZ
T1C0.016
T2C0.031
T3C0.032
T4C0.039
T5C0.043
T6C0.051
T7C0.126
%
G90
G05
M72
T1
X4.15Y-3.65
X4.4763Y-3.75
X4.5463Y-3.63
X4.75Y-2.23
X4.85Y-2.29
T2
X3.93Y-3.55
X3.93Y-3.85
X4.03Y-3.55
X4.03Y-3.85
X4.13Y-3.55
X4.13Y-3.85
X4.1416Y-3.39
X4.23Y-3.55
X4.23Y-3.85
X4.24Y-3.39
X4.58Y-3.41
X4.72Y-2.13
X4.7769Y-3.41
X4.8184Y-2.13
X4.9816Y-2.13
X5.08Y-2.13
X5.11Y-3.28
X5.2084Y-3.28
T3
X4.2Y-2.59
X4.2Y-2.69
X4.2Y-2.79
X4.2Y-2.89
X4.2Y-2.99
X4.2Y-3.09
X4.3Y-2.49
X4.3Y-2.59
X4.3Y-2.69
X4.3Y-2.79
X4.3Y-2.89
X4.3Y-2.99
X4.3Y-3.09
X4.3Y-3.19
X4.4Y-2.49
X4.4Y-2.59
X4.4Y-3.09
X4.4Y-3.19
X4.5Y-2.49
X4.5Y-2.59
X4.5Y-3.09
X4.5Y-3.19
X4.6Y-2.49
X4.6Y-2.59
X4.6Y-3.09
X4.6Y-3.19
X4.7Y-2.49
X4.7Y-2.59
X4.7Y-3.09
X4.7Y-3.19
X4.8Y-2.49
X4.8Y-2.59
X4.8Y-2.69
X4.8Y-2.79
X4.8Y-2.89
X4.8Y-2.99
X4.8Y-3.09
X4.8Y-3.19
X4.9Y-2.59
X4.9Y-2.69
X4.9Y-2.79
X4.9Y-2.89
X4.9Y-2.99
X4.9Y-3.09
T4
X3.56Y-2.2585
X3.56Y-2.3676
X3.56Y-2.4766
X3.56Y-2.5857
X3.56Y-2.6947
X3.56Y-2.8038
X3.56Y-2.9128
X3.56Y-3.0219
X3.56Y-3.1309
X3.56Y-3.24
X3.56Y-3.3491
X3.56Y-3.4581
X3.6718Y-2.204
X3.6718Y-2.313
X3.6718Y-2.4221
X3.6718Y-2.5311
X3.6718Y-2.6402
X3.6718Y-2.7493
X3.6718Y-2.8583
X3.6718Y-2.9674
X3.6718Y-3.0764
X3.6718Y-3.1855
X3.6718Y-3.2945
X3.6718Y-3.4036
X3.6718Y-3.5126
X4.02Y-2.15
X4.12Y-2.15
X4.22Y-2.15
X4.32Y-2.15
X4.42Y-2.15
X4.52Y-2.15
X4.72Y-3.58
X4.72Y-3.68
X4.72Y-3.78
X4.78Y-1.79
X4.88Y-1.79
X4.98Y-1.79
X5.4182Y-2.1959
X5.4182Y-2.3049
X5.4182Y-2.414
X5.4182Y-2.523
X5.4182Y-2.6321
X5.4182Y-2.7411
X5.4182Y-2.8502
X5.4182Y-2.9593
X5.4182Y-3.0683
X5.4182Y-3.1774
X5.4182Y-3.2864
X5.4182Y-3.3955
X5.4182Y-3.5045
X5.53Y-2.2504
X5.53Y-2.3594
X5.53Y-2.4685
X5.53Y-2.5776
X5.53Y-2.6866
X5.53Y-2.7957
X5.53Y-2.9047
X5.53Y-3.0138
X5.53Y-3.1228
X5.53Y-3.2319
X5.53Y-3.3409
X5.53Y-3.45
T5
X4.67Y-1.59
X5.07Y-1.59
T6
X4.96Y-3.66
X5.1569Y-3.66
T7
X3.66Y-1.9311
X3.66Y-3.7855
X5.43Y-1.923
X5.43Y-3.7774
T4
X4.115Y-1.6987G85X4.115Y-1.7775
G05
X4.3394Y-1.62G85X4.2606Y-1.62
G05
X4.3394Y-1.8562G85X4.2606Y-1.8562
G05
T0
M30
