G04 #@! TF.FileFunction,Copper,L1,Top,Signal*
%FSLAX46Y46*%
G04 Gerber Fmt 4.6, Leading zero omitted, Abs format (unit mm)*
G04 Created by KiCad (PCBNEW 4.0.7-e2-6376~58~ubuntu16.04.1) date Sat Dec  9 11:07:45 2023*
%MOMM*%
%LPD*%
G01*
G04 APERTURE LIST*
%ADD10C,0.100000*%
%ADD11R,1.600000X1.600000*%
%ADD12C,1.600000*%
%ADD13R,2.200000X2.200000*%
%ADD14O,2.200000X2.200000*%
%ADD15R,3.500000X3.500000*%
%ADD16C,4.000000*%
%ADD17R,1.700000X1.700000*%
%ADD18O,1.700000X1.700000*%
%ADD19R,2.000000X1.700000*%
%ADD20C,2.600000*%
%ADD21R,1.800000X1.800000*%
%ADD22O,1.800000X1.800000*%
%ADD23R,1.500000X1.300000*%
%ADD24R,1.397000X1.397000*%
%ADD25C,1.397000*%
%ADD26O,1.600000X1.600000*%
%ADD27C,0.600000*%
%ADD28C,0.400000*%
%ADD29C,0.250000*%
G04 APERTURE END LIST*
D10*
D11*
X119888000Y-54102000D03*
D12*
X122388000Y-54102000D03*
D11*
X129032000Y-54102000D03*
D12*
X126532000Y-54102000D03*
X116332000Y-86614000D03*
X121332000Y-86614000D03*
X105196000Y-86106000D03*
X107696000Y-86106000D03*
D11*
X132294000Y-83312000D03*
D12*
X129794000Y-83312000D03*
D13*
X118618000Y-40386000D03*
D14*
X128778000Y-40386000D03*
D15*
X109220000Y-47148000D03*
X109220000Y-41148000D03*
X104520000Y-44148000D03*
D11*
X93264000Y-55981000D03*
D12*
X93264000Y-58751000D03*
X93264000Y-61521000D03*
X93264000Y-64291000D03*
X93264000Y-67061000D03*
X93264000Y-69831000D03*
X93264000Y-72601000D03*
X93264000Y-75371000D03*
X93264000Y-78141000D03*
X93264000Y-80911000D03*
X93264000Y-83681000D03*
X93264000Y-86451000D03*
X93264000Y-89221000D03*
X90424000Y-57366000D03*
X90424000Y-60136000D03*
X90424000Y-62906000D03*
X90424000Y-65676000D03*
X90424000Y-68446000D03*
X90424000Y-71216000D03*
X90424000Y-73986000D03*
X90424000Y-76756000D03*
X90424000Y-79526000D03*
X90424000Y-82296000D03*
X90424000Y-85066000D03*
X90424000Y-87836000D03*
D16*
X92964000Y-49051000D03*
X92964000Y-96151000D03*
D17*
X114808000Y-54610000D03*
D18*
X112268000Y-54610000D03*
X109728000Y-54610000D03*
X107188000Y-54610000D03*
X104648000Y-54610000D03*
X102108000Y-54610000D03*
D11*
X137622000Y-55775000D03*
D12*
X137622000Y-58545000D03*
X137622000Y-61315000D03*
X137622000Y-64085000D03*
X137622000Y-66855000D03*
X137622000Y-69625000D03*
X137622000Y-72395000D03*
X137622000Y-75165000D03*
X137622000Y-77935000D03*
X137622000Y-80705000D03*
X137622000Y-83475000D03*
X137622000Y-86245000D03*
X137622000Y-89015000D03*
X140462000Y-57160000D03*
X140462000Y-59930000D03*
X140462000Y-62700000D03*
X140462000Y-65470000D03*
X140462000Y-68240000D03*
X140462000Y-71010000D03*
X140462000Y-73780000D03*
X140462000Y-76550000D03*
X140462000Y-79320000D03*
X140462000Y-82090000D03*
X140462000Y-84860000D03*
X140462000Y-87630000D03*
D16*
X137922000Y-95945000D03*
X137922000Y-48845000D03*
D19*
X98044000Y-83566000D03*
X102044000Y-83566000D03*
D20*
X125984000Y-92964000D03*
X130984000Y-92964000D03*
D21*
X119888000Y-90932000D03*
D22*
X119888000Y-93472000D03*
X119888000Y-96012000D03*
D23*
X116398000Y-95250000D03*
X113698000Y-95250000D03*
D21*
X121412000Y-45466000D03*
D22*
X123952000Y-45466000D03*
X126492000Y-45466000D03*
D24*
X116840000Y-65786000D03*
D25*
X114300000Y-63246000D03*
X114300000Y-65786000D03*
X111760000Y-63246000D03*
X111760000Y-65786000D03*
X109220000Y-63246000D03*
X106680000Y-65786000D03*
X109220000Y-65786000D03*
X106680000Y-68326000D03*
X109220000Y-68326000D03*
X106680000Y-70866000D03*
X109220000Y-70866000D03*
X106680000Y-73406000D03*
X109220000Y-73406000D03*
X106680000Y-75946000D03*
X109220000Y-75946000D03*
X106680000Y-78486000D03*
X109220000Y-81026000D03*
X109220000Y-78486000D03*
X111760000Y-81026000D03*
X111760000Y-78486000D03*
X114300000Y-81026000D03*
X114300000Y-78486000D03*
X116840000Y-81026000D03*
X116840000Y-78486000D03*
X119380000Y-81026000D03*
X119380000Y-78486000D03*
X121920000Y-81026000D03*
X124460000Y-78486000D03*
X121920000Y-78486000D03*
X124460000Y-75946000D03*
X121920000Y-75946000D03*
X124460000Y-73406000D03*
X121920000Y-73406000D03*
X124460000Y-70866000D03*
X121920000Y-70866000D03*
X124460000Y-68326000D03*
X121920000Y-68326000D03*
X124460000Y-65786000D03*
X121920000Y-63246000D03*
X121920000Y-65786000D03*
X119380000Y-63246000D03*
X119380000Y-65786000D03*
X116840000Y-63246000D03*
D11*
X99822000Y-97790000D03*
D26*
X107442000Y-90170000D03*
X102362000Y-97790000D03*
X104902000Y-90170000D03*
X104902000Y-97790000D03*
X102362000Y-90170000D03*
X107442000Y-97790000D03*
X99822000Y-90170000D03*
D27*
X105410000Y-92710000D03*
X115476000Y-92202000D03*
X120650000Y-56642000D03*
X123190000Y-58166000D03*
X113698000Y-95250000D03*
D28*
X121412000Y-45466000D02*
X110902000Y-45466000D01*
X110902000Y-45466000D02*
X109220000Y-47148000D01*
X140462000Y-62700000D02*
X135090000Y-62700000D01*
X135090000Y-62700000D02*
X128270000Y-55880000D01*
X128270000Y-55880000D02*
X121666000Y-55880000D01*
X121666000Y-55880000D02*
X119888000Y-54102000D01*
X109474000Y-88138000D02*
X114808000Y-88138000D01*
X114808000Y-88138000D02*
X116332000Y-86614000D01*
X108966000Y-88646000D02*
X109474000Y-88138000D01*
X100214630Y-88646000D02*
X108966000Y-88646000D01*
X99822000Y-90170000D02*
X99822000Y-89038630D01*
X99822000Y-89038630D02*
X100214630Y-88646000D01*
X99822000Y-90170000D02*
X102362000Y-92710000D01*
X102362000Y-92710000D02*
X105410000Y-92710000D01*
X109886000Y-46482000D02*
X109220000Y-47148000D01*
X122174000Y-51562000D02*
X119106000Y-51562000D01*
X119106000Y-51562000D02*
X116058000Y-54610000D01*
X116058000Y-54610000D02*
X114808000Y-54610000D01*
X122388000Y-51776000D02*
X122174000Y-51562000D01*
X122388000Y-54102000D02*
X122388000Y-51776000D01*
X130011000Y-48845000D02*
X130556000Y-48845000D01*
X130556000Y-48845000D02*
X137922000Y-48845000D01*
X126532000Y-51014000D02*
X128701000Y-48845000D01*
X128701000Y-48845000D02*
X130556000Y-48845000D01*
X126532000Y-54102000D02*
X126532000Y-51014000D01*
X127762000Y-81280000D02*
X131462000Y-81280000D01*
X131462000Y-81280000D02*
X132294000Y-82112000D01*
X132294000Y-82112000D02*
X132294000Y-83312000D01*
X125984000Y-83058000D02*
X127762000Y-81280000D01*
X115344172Y-83058000D02*
X125984000Y-83058000D01*
X114300000Y-81026000D02*
X114300000Y-82013828D01*
X114300000Y-82013828D02*
X115344172Y-83058000D01*
X90424000Y-82296000D02*
X102024000Y-82296000D01*
X102024000Y-82296000D02*
X102044000Y-82316000D01*
X102044000Y-82316000D02*
X102044000Y-83566000D01*
X92964000Y-96151000D02*
X100584000Y-96151000D01*
X102362000Y-97790000D02*
X102362000Y-96658630D01*
X102362000Y-96658630D02*
X101854370Y-96151000D01*
X101854370Y-96151000D02*
X100584000Y-96151000D01*
X140462000Y-59930000D02*
X141261999Y-60729999D01*
X141261999Y-60729999D02*
X141261999Y-60743999D01*
X141261999Y-60743999D02*
X141732000Y-61214000D01*
X141732000Y-83590000D02*
X140462000Y-84860000D01*
X141732000Y-61214000D02*
X141732000Y-83590000D01*
X114300000Y-78486000D02*
X113030000Y-77216000D01*
X113030000Y-77216000D02*
X107950000Y-77216000D01*
X107950000Y-77216000D02*
X106680000Y-75946000D01*
X122256501Y-72307499D02*
X117602000Y-72307499D01*
X114300000Y-78486000D02*
X114300000Y-75609499D01*
X114300000Y-75609499D02*
X117602000Y-72307499D01*
X122999501Y-71564499D02*
X122256501Y-72307499D01*
X124460000Y-70866000D02*
X123761501Y-71564499D01*
X123761501Y-71564499D02*
X122999501Y-71564499D01*
X121332000Y-86614000D02*
X115744000Y-92202000D01*
X115744000Y-92202000D02*
X115476000Y-92202000D01*
X121332000Y-86614000D02*
X120532001Y-87413999D01*
X119300000Y-84582000D02*
X109220000Y-84582000D01*
X109220000Y-84582000D02*
X107696000Y-86106000D01*
X121332000Y-86614000D02*
X119300000Y-84582000D01*
X129794000Y-83312000D02*
X127291999Y-85814001D01*
X127291999Y-85814001D02*
X122131999Y-85814001D01*
X122131999Y-85814001D02*
X121332000Y-86614000D01*
X119888000Y-93472000D02*
X125476000Y-93472000D01*
X125476000Y-93472000D02*
X125984000Y-92964000D01*
D29*
X116840000Y-65786000D02*
X116840000Y-64837500D01*
X116840000Y-64837500D02*
X115502500Y-63500000D01*
X115502500Y-63500000D02*
X115502500Y-61654500D01*
X96438989Y-56915989D02*
X95504000Y-55981000D01*
X115502500Y-61654500D02*
X110763989Y-56915989D01*
X110763989Y-56915989D02*
X96438989Y-56915989D01*
X95504000Y-55981000D02*
X94314000Y-55981000D01*
X94314000Y-55981000D02*
X93264000Y-55981000D01*
X108152590Y-58751000D02*
X111061501Y-61659911D01*
X111061501Y-61659911D02*
X111061501Y-62547501D01*
X93264000Y-58751000D02*
X108152590Y-58751000D01*
X111061501Y-62547501D02*
X111760000Y-63246000D01*
X93264000Y-61521000D02*
X107495000Y-61521000D01*
X107495000Y-61521000D02*
X109220000Y-63246000D01*
X102645000Y-64291000D02*
X94395370Y-64291000D01*
X106680000Y-68326000D02*
X102645000Y-64291000D01*
X94395370Y-64291000D02*
X93264000Y-64291000D01*
X101346000Y-70866000D02*
X97541000Y-67061000D01*
X97541000Y-67061000D02*
X93264000Y-67061000D01*
X106680000Y-70866000D02*
X101346000Y-70866000D01*
X109220000Y-73406000D02*
X107950000Y-72136000D01*
X107950000Y-72136000D02*
X95569000Y-72136000D01*
X95569000Y-72136000D02*
X93264000Y-69831000D01*
X109220000Y-75946000D02*
X107950000Y-74676000D01*
X107950000Y-74676000D02*
X95339000Y-74676000D01*
X95339000Y-74676000D02*
X93264000Y-72601000D01*
X100263000Y-75371000D02*
X98298000Y-75371000D01*
X102108000Y-77216000D02*
X100263000Y-75371000D01*
X106962172Y-77216000D02*
X102108000Y-77216000D01*
X108232172Y-78486000D02*
X106962172Y-77216000D01*
X109220000Y-78486000D02*
X108232172Y-78486000D01*
X98298000Y-75371000D02*
X93264000Y-75371000D01*
X98806000Y-75371000D02*
X98298000Y-75371000D01*
X98993000Y-75371000D02*
X98806000Y-75371000D01*
X106680000Y-78486000D02*
X93609000Y-78486000D01*
X93609000Y-78486000D02*
X93264000Y-78141000D01*
X109220000Y-81026000D02*
X93379000Y-81026000D01*
X93379000Y-81026000D02*
X93264000Y-80911000D01*
X93264000Y-83681000D02*
X97929000Y-83681000D01*
X97929000Y-83681000D02*
X98044000Y-83566000D01*
X103632000Y-85344000D02*
X94371000Y-85344000D01*
X94371000Y-85344000D02*
X93264000Y-86451000D01*
X105918000Y-83058000D02*
X103632000Y-85344000D01*
X109474000Y-83058000D02*
X105918000Y-83058000D01*
X110490000Y-82042000D02*
X109474000Y-83058000D01*
X110490000Y-79756000D02*
X110490000Y-82042000D01*
X111760000Y-78486000D02*
X110490000Y-79756000D01*
X111760000Y-82013828D02*
X111760000Y-81026000D01*
X110265817Y-83508011D02*
X111760000Y-82013828D01*
X103818401Y-85794009D02*
X106104399Y-83508011D01*
X96690991Y-85794009D02*
X103818401Y-85794009D01*
X93264000Y-89221000D02*
X96690991Y-85794009D01*
X106104399Y-83508011D02*
X110265817Y-83508011D01*
X108420000Y-57366000D02*
X110490000Y-59436000D01*
X90424000Y-57366000D02*
X108420000Y-57366000D01*
X110490000Y-59436000D02*
X114300000Y-63246000D01*
X90424000Y-60136000D02*
X108396000Y-60136000D01*
X110490000Y-64516000D02*
X111760000Y-65786000D01*
X108396000Y-60136000D02*
X110490000Y-62230000D01*
X110490000Y-62230000D02*
X110490000Y-64516000D01*
X90424000Y-62906000D02*
X106340000Y-62906000D01*
X106340000Y-62906000D02*
X107188000Y-63754000D01*
X107188000Y-63754000D02*
X109220000Y-65786000D01*
X109220000Y-70866000D02*
X107950000Y-69596000D01*
X107950000Y-69596000D02*
X101092000Y-69596000D01*
X101092000Y-69596000D02*
X97172000Y-65676000D01*
X97172000Y-65676000D02*
X90424000Y-65676000D01*
X110577999Y-55459999D02*
X109728000Y-54610000D01*
X110903001Y-55785001D02*
X110577999Y-55459999D01*
X119793001Y-55785001D02*
X110903001Y-55785001D01*
X120650000Y-56642000D02*
X119793001Y-55785001D01*
X108813012Y-56235012D02*
X108037999Y-55459999D01*
X112115012Y-56235012D02*
X108813012Y-56235012D01*
X108037999Y-55459999D02*
X107188000Y-54610000D01*
X114046000Y-58166000D02*
X112115012Y-56235012D01*
X123190000Y-58166000D02*
X114046000Y-58166000D01*
X131318000Y-65786000D02*
X132387000Y-66855000D01*
X132387000Y-66855000D02*
X137622000Y-66855000D01*
X124460000Y-65786000D02*
X131318000Y-65786000D01*
X123190000Y-69596000D02*
X123219000Y-69625000D01*
X123219000Y-69625000D02*
X137622000Y-69625000D01*
X121920000Y-70866000D02*
X123190000Y-69596000D01*
X136490630Y-72395000D02*
X135479630Y-73406000D01*
X125447828Y-73406000D02*
X124460000Y-73406000D01*
X137622000Y-72395000D02*
X136490630Y-72395000D01*
X135479630Y-73406000D02*
X125447828Y-73406000D01*
X136490630Y-75165000D02*
X136906000Y-75165000D01*
X136906000Y-75165000D02*
X137622000Y-75165000D01*
X129032000Y-77216000D02*
X131083000Y-75165000D01*
X131083000Y-75165000D02*
X136906000Y-75165000D01*
X119662172Y-77216000D02*
X129032000Y-77216000D01*
X119380000Y-78486000D02*
X119380000Y-77498172D01*
X119380000Y-77498172D02*
X119662172Y-77216000D01*
X131064000Y-79756000D02*
X132885000Y-77935000D01*
X132885000Y-77935000D02*
X137622000Y-77935000D01*
X120650000Y-79756000D02*
X131064000Y-79756000D01*
X119380000Y-81026000D02*
X120650000Y-79756000D01*
X118110000Y-81788000D02*
X118618000Y-82296000D01*
X118618000Y-82296000D02*
X123698000Y-82296000D01*
X123698000Y-82296000D02*
X125289000Y-80705000D01*
X125289000Y-80705000D02*
X137622000Y-80705000D01*
X118110000Y-81270782D02*
X118110000Y-81788000D01*
X118110000Y-80772000D02*
X118110000Y-81788000D01*
X118110000Y-79756000D02*
X118110000Y-80772000D01*
X118110000Y-80772000D02*
X118110000Y-81270782D01*
X116840000Y-78486000D02*
X118110000Y-79756000D01*
X130556000Y-63246000D02*
X132780000Y-65470000D01*
X132780000Y-65470000D02*
X140462000Y-65470000D01*
X121920000Y-63246000D02*
X130556000Y-63246000D01*
X140462000Y-68240000D02*
X124546000Y-68240000D01*
X124546000Y-68240000D02*
X124460000Y-68326000D01*
X121920000Y-73406000D02*
X123190000Y-72136000D01*
X123190000Y-72136000D02*
X134620000Y-72136000D01*
X134620000Y-72136000D02*
X135746000Y-71010000D01*
X135746000Y-71010000D02*
X140462000Y-71010000D01*
X139330630Y-73780000D02*
X140462000Y-73780000D01*
X135742041Y-73780000D02*
X139330630Y-73780000D01*
X125691011Y-74714989D02*
X134807052Y-74714989D01*
X124460000Y-75946000D02*
X125691011Y-74714989D01*
X134807052Y-74714989D02*
X135742041Y-73780000D01*
X140462000Y-76550000D02*
X133350000Y-76550000D01*
X133350000Y-76550000D02*
X133000000Y-76550000D01*
X129794000Y-78486000D02*
X131730000Y-76550000D01*
X131730000Y-76550000D02*
X133350000Y-76550000D01*
X124460000Y-78486000D02*
X129794000Y-78486000D01*
X139330630Y-79320000D02*
X140462000Y-79320000D01*
X132089011Y-80254989D02*
X133024000Y-79320000D01*
X122691011Y-80254989D02*
X132089011Y-80254989D01*
X133024000Y-79320000D02*
X139330630Y-79320000D01*
X121920000Y-81026000D02*
X122691011Y-80254989D01*
X116398000Y-95250000D02*
X119126000Y-95250000D01*
X119126000Y-95250000D02*
X119888000Y-96012000D01*
X108966000Y-91694000D02*
X112522000Y-95250000D01*
X112522000Y-95250000D02*
X113698000Y-95250000D01*
X103886000Y-91694000D02*
X108966000Y-91694000D01*
X102362000Y-90170000D02*
X103886000Y-91694000D01*
M02*
