G04 #@! TF.FileFunction,Soldermask,Top*
%FSLAX46Y46*%
G04 Gerber Fmt 4.6, Leading zero omitted, Abs format (unit mm)*
G04 Created by KiCad (PCBNEW 4.0.7-e2-6376~58~ubuntu16.04.1) date Sat Dec  9 11:07:45 2023*
%MOMM*%
%LPD*%
G01*
G04 APERTURE LIST*
%ADD10C,0.100000*%
%ADD11R,2.000000X2.000000*%
%ADD12C,2.000000*%
%ADD13R,2.600000X2.600000*%
%ADD14O,2.600000X2.600000*%
%ADD15R,3.900000X3.900000*%
%ADD16C,4.400000*%
%ADD17R,2.100000X2.100000*%
%ADD18O,2.100000X2.100000*%
%ADD19R,2.400000X2.100000*%
%ADD20C,3.000000*%
%ADD21R,2.200000X2.200000*%
%ADD22O,2.200000X2.200000*%
%ADD23R,1.900000X1.700000*%
%ADD24R,1.797000X1.797000*%
%ADD25C,1.797000*%
%ADD26O,2.000000X2.000000*%
G04 APERTURE END LIST*
D10*
D11*
X119888000Y-54102000D03*
D12*
X122388000Y-54102000D03*
D11*
X129032000Y-54102000D03*
D12*
X126532000Y-54102000D03*
X116332000Y-86614000D03*
X121332000Y-86614000D03*
X105196000Y-86106000D03*
X107696000Y-86106000D03*
D11*
X132294000Y-83312000D03*
D12*
X129794000Y-83312000D03*
D13*
X118618000Y-40386000D03*
D14*
X128778000Y-40386000D03*
D15*
X109220000Y-47148000D03*
X109220000Y-41148000D03*
X104520000Y-44148000D03*
D11*
X93264000Y-55981000D03*
D12*
X93264000Y-58751000D03*
X93264000Y-61521000D03*
X93264000Y-64291000D03*
X93264000Y-67061000D03*
X93264000Y-69831000D03*
X93264000Y-72601000D03*
X93264000Y-75371000D03*
X93264000Y-78141000D03*
X93264000Y-80911000D03*
X93264000Y-83681000D03*
X93264000Y-86451000D03*
X93264000Y-89221000D03*
X90424000Y-57366000D03*
X90424000Y-60136000D03*
X90424000Y-62906000D03*
X90424000Y-65676000D03*
X90424000Y-68446000D03*
X90424000Y-71216000D03*
X90424000Y-73986000D03*
X90424000Y-76756000D03*
X90424000Y-79526000D03*
X90424000Y-82296000D03*
X90424000Y-85066000D03*
X90424000Y-87836000D03*
D16*
X92964000Y-49051000D03*
X92964000Y-96151000D03*
D17*
X114808000Y-54610000D03*
D18*
X112268000Y-54610000D03*
X109728000Y-54610000D03*
X107188000Y-54610000D03*
X104648000Y-54610000D03*
X102108000Y-54610000D03*
D11*
X137622000Y-55775000D03*
D12*
X137622000Y-58545000D03*
X137622000Y-61315000D03*
X137622000Y-64085000D03*
X137622000Y-66855000D03*
X137622000Y-69625000D03*
X137622000Y-72395000D03*
X137622000Y-75165000D03*
X137622000Y-77935000D03*
X137622000Y-80705000D03*
X137622000Y-83475000D03*
X137622000Y-86245000D03*
X137622000Y-89015000D03*
X140462000Y-57160000D03*
X140462000Y-59930000D03*
X140462000Y-62700000D03*
X140462000Y-65470000D03*
X140462000Y-68240000D03*
X140462000Y-71010000D03*
X140462000Y-73780000D03*
X140462000Y-76550000D03*
X140462000Y-79320000D03*
X140462000Y-82090000D03*
X140462000Y-84860000D03*
X140462000Y-87630000D03*
D16*
X137922000Y-95945000D03*
X137922000Y-48845000D03*
D19*
X98044000Y-83566000D03*
X102044000Y-83566000D03*
D20*
X125984000Y-92964000D03*
X130984000Y-92964000D03*
D21*
X119888000Y-90932000D03*
D22*
X119888000Y-93472000D03*
X119888000Y-96012000D03*
D23*
X116398000Y-95250000D03*
X113698000Y-95250000D03*
D21*
X121412000Y-45466000D03*
D22*
X123952000Y-45466000D03*
X126492000Y-45466000D03*
D24*
X116840000Y-65786000D03*
D25*
X114300000Y-63246000D03*
X114300000Y-65786000D03*
X111760000Y-63246000D03*
X111760000Y-65786000D03*
X109220000Y-63246000D03*
X106680000Y-65786000D03*
X109220000Y-65786000D03*
X106680000Y-68326000D03*
X109220000Y-68326000D03*
X106680000Y-70866000D03*
X109220000Y-70866000D03*
X106680000Y-73406000D03*
X109220000Y-73406000D03*
X106680000Y-75946000D03*
X109220000Y-75946000D03*
X106680000Y-78486000D03*
X109220000Y-81026000D03*
X109220000Y-78486000D03*
X111760000Y-81026000D03*
X111760000Y-78486000D03*
X114300000Y-81026000D03*
X114300000Y-78486000D03*
X116840000Y-81026000D03*
X116840000Y-78486000D03*
X119380000Y-81026000D03*
X119380000Y-78486000D03*
X121920000Y-81026000D03*
X124460000Y-78486000D03*
X121920000Y-78486000D03*
X124460000Y-75946000D03*
X121920000Y-75946000D03*
X124460000Y-73406000D03*
X121920000Y-73406000D03*
X124460000Y-70866000D03*
X121920000Y-70866000D03*
X124460000Y-68326000D03*
X121920000Y-68326000D03*
X124460000Y-65786000D03*
X121920000Y-63246000D03*
X121920000Y-65786000D03*
X119380000Y-63246000D03*
X119380000Y-65786000D03*
X116840000Y-63246000D03*
D11*
X99822000Y-97790000D03*
D26*
X107442000Y-90170000D03*
X102362000Y-97790000D03*
X104902000Y-90170000D03*
X104902000Y-97790000D03*
X102362000Y-90170000D03*
X107442000Y-97790000D03*
X99822000Y-90170000D03*
M02*
