G04 #@! TF.FileFunction,Legend,Bot*
%FSLAX46Y46*%
G04 Gerber Fmt 4.6, Leading zero omitted, Abs format (unit mm)*
G04 Created by KiCad (PCBNEW 4.0.7-e2-6376~58~ubuntu16.04.1) date Sat Dec  9 11:07:45 2023*
%MOMM*%
%LPD*%
G01*
G04 APERTURE LIST*
%ADD10C,0.100000*%
%ADD11C,0.120000*%
%ADD12C,0.150000*%
%ADD13C,0.300000*%
%ADD14R,2.000000X2.000000*%
%ADD15C,2.000000*%
%ADD16R,1.900000X1.650000*%
%ADD17R,2.600000X2.600000*%
%ADD18O,2.600000X2.600000*%
%ADD19R,3.900000X3.900000*%
%ADD20C,4.400000*%
%ADD21R,2.100000X2.100000*%
%ADD22O,2.100000X2.100000*%
%ADD23C,3.000000*%
%ADD24R,2.200000X2.200000*%
%ADD25O,2.200000X2.200000*%
%ADD26R,1.900000X1.700000*%
%ADD27R,1.797000X1.797000*%
%ADD28C,1.797000*%
%ADD29O,2.000000X2.000000*%
G04 APERTURE END LIST*
D10*
D11*
X117340000Y-69176000D02*
X116340000Y-69176000D01*
X116340000Y-67476000D02*
X117340000Y-67476000D01*
X116070000Y-76796000D02*
X115070000Y-76796000D01*
X115070000Y-75096000D02*
X116070000Y-75096000D01*
X123780000Y-91304000D02*
X123780000Y-87004000D01*
X123780000Y-87004000D02*
X131330000Y-87004000D01*
X123780000Y-91304000D02*
X131330000Y-91304000D01*
X116090000Y-70240000D02*
X114890000Y-70240000D01*
X114890000Y-72000000D02*
X116090000Y-72000000D01*
X107360000Y-91830000D02*
X106160000Y-91830000D01*
X106160000Y-93590000D02*
X107360000Y-93590000D01*
X107534000Y-94116000D02*
X106334000Y-94116000D01*
X106334000Y-95876000D02*
X107534000Y-95876000D01*
X100746000Y-95622000D02*
X101946000Y-95622000D01*
X101946000Y-93862000D02*
X100746000Y-93862000D01*
X111668000Y-87494000D02*
X112868000Y-87494000D01*
X112868000Y-85734000D02*
X111668000Y-85734000D01*
X114726000Y-91322000D02*
X113526000Y-91322000D01*
X113526000Y-93082000D02*
X114726000Y-93082000D01*
X111748000Y-96130000D02*
X112948000Y-96130000D01*
X112948000Y-94370000D02*
X111748000Y-94370000D01*
X102200000Y-86242000D02*
X101000000Y-86242000D01*
X101000000Y-88002000D02*
X102200000Y-88002000D01*
X97708000Y-91322000D02*
X96508000Y-91322000D01*
X96508000Y-93082000D02*
X97708000Y-93082000D01*
D12*
X113641047Y-68524381D02*
X114212476Y-68524381D01*
X113926762Y-68524381D02*
X113926762Y-67524381D01*
X114022000Y-67667238D01*
X114117238Y-67762476D01*
X114212476Y-67810095D01*
X113022000Y-67524381D02*
X112926761Y-67524381D01*
X112831523Y-67572000D01*
X112783904Y-67619619D01*
X112736285Y-67714857D01*
X112688666Y-67905333D01*
X112688666Y-68143429D01*
X112736285Y-68333905D01*
X112783904Y-68429143D01*
X112831523Y-68476762D01*
X112926761Y-68524381D01*
X113022000Y-68524381D01*
X113117238Y-68476762D01*
X113164857Y-68429143D01*
X113212476Y-68333905D01*
X113260095Y-68143429D01*
X113260095Y-67905333D01*
X113212476Y-67714857D01*
X113164857Y-67619619D01*
X113117238Y-67572000D01*
X113022000Y-67524381D01*
X112069619Y-67524381D02*
X111974380Y-67524381D01*
X111879142Y-67572000D01*
X111831523Y-67619619D01*
X111783904Y-67714857D01*
X111736285Y-67905333D01*
X111736285Y-68143429D01*
X111783904Y-68333905D01*
X111831523Y-68429143D01*
X111879142Y-68476762D01*
X111974380Y-68524381D01*
X112069619Y-68524381D01*
X112164857Y-68476762D01*
X112212476Y-68429143D01*
X112260095Y-68333905D01*
X112307714Y-68143429D01*
X112307714Y-67905333D01*
X112260095Y-67714857D01*
X112212476Y-67619619D01*
X112164857Y-67572000D01*
X112069619Y-67524381D01*
X111307714Y-67857714D02*
X111307714Y-68524381D01*
X111307714Y-67952952D02*
X111260095Y-67905333D01*
X111164857Y-67857714D01*
X111021999Y-67857714D01*
X110926761Y-67905333D01*
X110879142Y-68000571D01*
X110879142Y-68524381D01*
X116689047Y-74648381D02*
X117260476Y-74648381D01*
X116974762Y-74648381D02*
X116974762Y-73648381D01*
X117070000Y-73791238D01*
X117165238Y-73886476D01*
X117260476Y-73934095D01*
X116070000Y-73648381D02*
X115974761Y-73648381D01*
X115879523Y-73696000D01*
X115831904Y-73743619D01*
X115784285Y-73838857D01*
X115736666Y-74029333D01*
X115736666Y-74267429D01*
X115784285Y-74457905D01*
X115831904Y-74553143D01*
X115879523Y-74600762D01*
X115974761Y-74648381D01*
X116070000Y-74648381D01*
X116165238Y-74600762D01*
X116212857Y-74553143D01*
X116260476Y-74457905D01*
X116308095Y-74267429D01*
X116308095Y-74029333D01*
X116260476Y-73838857D01*
X116212857Y-73743619D01*
X116165238Y-73696000D01*
X116070000Y-73648381D01*
X115117619Y-73648381D02*
X115022380Y-73648381D01*
X114927142Y-73696000D01*
X114879523Y-73743619D01*
X114831904Y-73838857D01*
X114784285Y-74029333D01*
X114784285Y-74267429D01*
X114831904Y-74457905D01*
X114879523Y-74553143D01*
X114927142Y-74600762D01*
X115022380Y-74648381D01*
X115117619Y-74648381D01*
X115212857Y-74600762D01*
X115260476Y-74553143D01*
X115308095Y-74457905D01*
X115355714Y-74267429D01*
X115355714Y-74029333D01*
X115308095Y-73838857D01*
X115260476Y-73743619D01*
X115212857Y-73696000D01*
X115117619Y-73648381D01*
X114355714Y-73981714D02*
X114355714Y-74648381D01*
X114355714Y-74076952D02*
X114308095Y-74029333D01*
X114212857Y-73981714D01*
X114069999Y-73981714D01*
X113974761Y-74029333D01*
X113927142Y-74124571D01*
X113927142Y-74648381D01*
X131484191Y-85812381D02*
X131150858Y-86812381D01*
X130817524Y-85812381D01*
X130341334Y-86240952D02*
X130436572Y-86193333D01*
X130484191Y-86145714D01*
X130531810Y-86050476D01*
X130531810Y-86002857D01*
X130484191Y-85907619D01*
X130436572Y-85860000D01*
X130341334Y-85812381D01*
X130150857Y-85812381D01*
X130055619Y-85860000D01*
X130008000Y-85907619D01*
X129960381Y-86002857D01*
X129960381Y-86050476D01*
X130008000Y-86145714D01*
X130055619Y-86193333D01*
X130150857Y-86240952D01*
X130341334Y-86240952D01*
X130436572Y-86288571D01*
X130484191Y-86336190D01*
X130531810Y-86431429D01*
X130531810Y-86621905D01*
X130484191Y-86717143D01*
X130436572Y-86764762D01*
X130341334Y-86812381D01*
X130150857Y-86812381D01*
X130055619Y-86764762D01*
X130008000Y-86717143D01*
X129960381Y-86621905D01*
X129960381Y-86431429D01*
X130008000Y-86336190D01*
X130055619Y-86288571D01*
X130150857Y-86240952D01*
X129531810Y-86812381D02*
X129531810Y-85812381D01*
X129150857Y-85812381D01*
X129055619Y-85860000D01*
X129008000Y-85907619D01*
X128960381Y-86002857D01*
X128960381Y-86145714D01*
X129008000Y-86240952D01*
X129055619Y-86288571D01*
X129150857Y-86336190D01*
X129531810Y-86336190D01*
X128579429Y-86526667D02*
X128103238Y-86526667D01*
X128674667Y-86812381D02*
X128341334Y-85812381D01*
X128008000Y-86812381D01*
X127198476Y-86812381D02*
X127674667Y-86812381D01*
X127674667Y-85812381D01*
X126436571Y-86145714D02*
X126436571Y-86812381D01*
X126674667Y-85764762D02*
X126912762Y-86479048D01*
X126293714Y-86479048D01*
X125436571Y-85812381D02*
X125912762Y-85812381D01*
X125960381Y-86288571D01*
X125912762Y-86240952D01*
X125817524Y-86193333D01*
X125579428Y-86193333D01*
X125484190Y-86240952D01*
X125436571Y-86288571D01*
X125388952Y-86383810D01*
X125388952Y-86621905D01*
X125436571Y-86717143D01*
X125484190Y-86764762D01*
X125579428Y-86812381D01*
X125817524Y-86812381D01*
X125912762Y-86764762D01*
X125960381Y-86717143D01*
X124198476Y-86812381D02*
X124198476Y-85812381D01*
X123627047Y-86812381D02*
X124055619Y-86240952D01*
X123627047Y-85812381D02*
X124198476Y-86383810D01*
X119975238Y-71572381D02*
X120546667Y-71572381D01*
X120260953Y-71572381D02*
X120260953Y-70572381D01*
X120356191Y-70715238D01*
X120451429Y-70810476D01*
X120546667Y-70858095D01*
X119356191Y-70572381D02*
X119260952Y-70572381D01*
X119165714Y-70620000D01*
X119118095Y-70667619D01*
X119070476Y-70762857D01*
X119022857Y-70953333D01*
X119022857Y-71191429D01*
X119070476Y-71381905D01*
X119118095Y-71477143D01*
X119165714Y-71524762D01*
X119260952Y-71572381D01*
X119356191Y-71572381D01*
X119451429Y-71524762D01*
X119499048Y-71477143D01*
X119546667Y-71381905D01*
X119594286Y-71191429D01*
X119594286Y-70953333D01*
X119546667Y-70762857D01*
X119499048Y-70667619D01*
X119451429Y-70620000D01*
X119356191Y-70572381D01*
X118594286Y-71572381D02*
X118594286Y-70572381D01*
X118499048Y-71191429D02*
X118213333Y-71572381D01*
X118213333Y-70905714D02*
X118594286Y-71286667D01*
X103727143Y-92563905D02*
X104184286Y-92563905D01*
X103955715Y-92563905D02*
X103955715Y-91763905D01*
X104031905Y-91878190D01*
X104108096Y-91954381D01*
X104184286Y-91992476D01*
X103231905Y-91763905D02*
X103155714Y-91763905D01*
X103079524Y-91802000D01*
X103041429Y-91840095D01*
X103003333Y-91916286D01*
X102965238Y-92068667D01*
X102965238Y-92259143D01*
X103003333Y-92411524D01*
X103041429Y-92487714D01*
X103079524Y-92525810D01*
X103155714Y-92563905D01*
X103231905Y-92563905D01*
X103308095Y-92525810D01*
X103346191Y-92487714D01*
X103384286Y-92411524D01*
X103422381Y-92259143D01*
X103422381Y-92068667D01*
X103384286Y-91916286D01*
X103346191Y-91840095D01*
X103308095Y-91802000D01*
X103231905Y-91763905D01*
X102470000Y-91763905D02*
X102393809Y-91763905D01*
X102317619Y-91802000D01*
X102279524Y-91840095D01*
X102241428Y-91916286D01*
X102203333Y-92068667D01*
X102203333Y-92259143D01*
X102241428Y-92411524D01*
X102279524Y-92487714D01*
X102317619Y-92525810D01*
X102393809Y-92563905D01*
X102470000Y-92563905D01*
X102546190Y-92525810D01*
X102584286Y-92487714D01*
X102622381Y-92411524D01*
X102660476Y-92259143D01*
X102660476Y-92068667D01*
X102622381Y-91916286D01*
X102584286Y-91840095D01*
X102546190Y-91802000D01*
X102470000Y-91763905D01*
X101860476Y-92563905D02*
X101860476Y-91763905D01*
X101784285Y-92259143D02*
X101555714Y-92563905D01*
X101555714Y-92030571D02*
X101860476Y-92335333D01*
X103981143Y-96627905D02*
X104438286Y-96627905D01*
X104209715Y-96627905D02*
X104209715Y-95827905D01*
X104285905Y-95942190D01*
X104362096Y-96018381D01*
X104438286Y-96056476D01*
X103485905Y-95827905D02*
X103409714Y-95827905D01*
X103333524Y-95866000D01*
X103295429Y-95904095D01*
X103257333Y-95980286D01*
X103219238Y-96132667D01*
X103219238Y-96323143D01*
X103257333Y-96475524D01*
X103295429Y-96551714D01*
X103333524Y-96589810D01*
X103409714Y-96627905D01*
X103485905Y-96627905D01*
X103562095Y-96589810D01*
X103600191Y-96551714D01*
X103638286Y-96475524D01*
X103676381Y-96323143D01*
X103676381Y-96132667D01*
X103638286Y-95980286D01*
X103600191Y-95904095D01*
X103562095Y-95866000D01*
X103485905Y-95827905D01*
X102724000Y-95827905D02*
X102647809Y-95827905D01*
X102571619Y-95866000D01*
X102533524Y-95904095D01*
X102495428Y-95980286D01*
X102457333Y-96132667D01*
X102457333Y-96323143D01*
X102495428Y-96475524D01*
X102533524Y-96551714D01*
X102571619Y-96589810D01*
X102647809Y-96627905D01*
X102724000Y-96627905D01*
X102800190Y-96589810D01*
X102838286Y-96551714D01*
X102876381Y-96475524D01*
X102914476Y-96323143D01*
X102914476Y-96132667D01*
X102876381Y-95980286D01*
X102838286Y-95904095D01*
X102800190Y-95866000D01*
X102724000Y-95827905D01*
X102114476Y-96627905D02*
X102114476Y-95827905D01*
X102038285Y-96323143D02*
X101809714Y-96627905D01*
X101809714Y-96094571D02*
X102114476Y-96399333D01*
X98226476Y-94781714D02*
X98226476Y-95448381D01*
X98464572Y-94400762D02*
X98702667Y-95115048D01*
X98083619Y-95115048D01*
X97797905Y-94448381D02*
X97131238Y-94448381D01*
X97559810Y-95448381D01*
X96750286Y-95448381D02*
X96750286Y-94448381D01*
X96655048Y-95067429D02*
X96369333Y-95448381D01*
X96369333Y-94781714D02*
X96750286Y-95162667D01*
X113339428Y-88816381D02*
X113910857Y-88816381D01*
X113625143Y-88816381D02*
X113625143Y-87816381D01*
X113720381Y-87959238D01*
X113815619Y-88054476D01*
X113910857Y-88102095D01*
X112720381Y-87816381D02*
X112625142Y-87816381D01*
X112529904Y-87864000D01*
X112482285Y-87911619D01*
X112434666Y-88006857D01*
X112387047Y-88197333D01*
X112387047Y-88435429D01*
X112434666Y-88625905D01*
X112482285Y-88721143D01*
X112529904Y-88768762D01*
X112625142Y-88816381D01*
X112720381Y-88816381D01*
X112815619Y-88768762D01*
X112863238Y-88721143D01*
X112910857Y-88625905D01*
X112958476Y-88435429D01*
X112958476Y-88197333D01*
X112910857Y-88006857D01*
X112863238Y-87911619D01*
X112815619Y-87864000D01*
X112720381Y-87816381D01*
X111768000Y-87816381D02*
X111672761Y-87816381D01*
X111577523Y-87864000D01*
X111529904Y-87911619D01*
X111482285Y-88006857D01*
X111434666Y-88197333D01*
X111434666Y-88435429D01*
X111482285Y-88625905D01*
X111529904Y-88721143D01*
X111577523Y-88768762D01*
X111672761Y-88816381D01*
X111768000Y-88816381D01*
X111863238Y-88768762D01*
X111910857Y-88721143D01*
X111958476Y-88625905D01*
X112006095Y-88435429D01*
X112006095Y-88197333D01*
X111958476Y-88006857D01*
X111910857Y-87911619D01*
X111863238Y-87864000D01*
X111768000Y-87816381D01*
X111006095Y-88816381D02*
X111006095Y-87816381D01*
X110910857Y-88435429D02*
X110625142Y-88816381D01*
X110625142Y-88149714D02*
X111006095Y-88530667D01*
X115197428Y-90904381D02*
X115768857Y-90904381D01*
X115483143Y-90904381D02*
X115483143Y-89904381D01*
X115578381Y-90047238D01*
X115673619Y-90142476D01*
X115768857Y-90190095D01*
X114578381Y-89904381D02*
X114483142Y-89904381D01*
X114387904Y-89952000D01*
X114340285Y-89999619D01*
X114292666Y-90094857D01*
X114245047Y-90285333D01*
X114245047Y-90523429D01*
X114292666Y-90713905D01*
X114340285Y-90809143D01*
X114387904Y-90856762D01*
X114483142Y-90904381D01*
X114578381Y-90904381D01*
X114673619Y-90856762D01*
X114721238Y-90809143D01*
X114768857Y-90713905D01*
X114816476Y-90523429D01*
X114816476Y-90285333D01*
X114768857Y-90094857D01*
X114721238Y-89999619D01*
X114673619Y-89952000D01*
X114578381Y-89904381D01*
X113626000Y-89904381D02*
X113530761Y-89904381D01*
X113435523Y-89952000D01*
X113387904Y-89999619D01*
X113340285Y-90094857D01*
X113292666Y-90285333D01*
X113292666Y-90523429D01*
X113340285Y-90713905D01*
X113387904Y-90809143D01*
X113435523Y-90856762D01*
X113530761Y-90904381D01*
X113626000Y-90904381D01*
X113721238Y-90856762D01*
X113768857Y-90809143D01*
X113816476Y-90713905D01*
X113864095Y-90523429D01*
X113864095Y-90285333D01*
X113816476Y-90094857D01*
X113768857Y-89999619D01*
X113721238Y-89952000D01*
X113626000Y-89904381D01*
X112864095Y-90904381D02*
X112864095Y-89904381D01*
X112768857Y-90523429D02*
X112483142Y-90904381D01*
X112483142Y-90237714D02*
X112864095Y-90618667D01*
X113419428Y-97452381D02*
X113990857Y-97452381D01*
X113705143Y-97452381D02*
X113705143Y-96452381D01*
X113800381Y-96595238D01*
X113895619Y-96690476D01*
X113990857Y-96738095D01*
X112800381Y-96452381D02*
X112705142Y-96452381D01*
X112609904Y-96500000D01*
X112562285Y-96547619D01*
X112514666Y-96642857D01*
X112467047Y-96833333D01*
X112467047Y-97071429D01*
X112514666Y-97261905D01*
X112562285Y-97357143D01*
X112609904Y-97404762D01*
X112705142Y-97452381D01*
X112800381Y-97452381D01*
X112895619Y-97404762D01*
X112943238Y-97357143D01*
X112990857Y-97261905D01*
X113038476Y-97071429D01*
X113038476Y-96833333D01*
X112990857Y-96642857D01*
X112943238Y-96547619D01*
X112895619Y-96500000D01*
X112800381Y-96452381D01*
X111848000Y-96452381D02*
X111752761Y-96452381D01*
X111657523Y-96500000D01*
X111609904Y-96547619D01*
X111562285Y-96642857D01*
X111514666Y-96833333D01*
X111514666Y-97071429D01*
X111562285Y-97261905D01*
X111609904Y-97357143D01*
X111657523Y-97404762D01*
X111752761Y-97452381D01*
X111848000Y-97452381D01*
X111943238Y-97404762D01*
X111990857Y-97357143D01*
X112038476Y-97261905D01*
X112086095Y-97071429D01*
X112086095Y-96833333D01*
X112038476Y-96642857D01*
X111990857Y-96547619D01*
X111943238Y-96500000D01*
X111848000Y-96452381D01*
X111086095Y-97452381D02*
X111086095Y-96452381D01*
X110990857Y-97071429D02*
X110705142Y-97452381D01*
X110705142Y-96785714D02*
X111086095Y-97166667D01*
X102671428Y-85824381D02*
X103242857Y-85824381D01*
X102957143Y-85824381D02*
X102957143Y-84824381D01*
X103052381Y-84967238D01*
X103147619Y-85062476D01*
X103242857Y-85110095D01*
X102052381Y-84824381D02*
X101957142Y-84824381D01*
X101861904Y-84872000D01*
X101814285Y-84919619D01*
X101766666Y-85014857D01*
X101719047Y-85205333D01*
X101719047Y-85443429D01*
X101766666Y-85633905D01*
X101814285Y-85729143D01*
X101861904Y-85776762D01*
X101957142Y-85824381D01*
X102052381Y-85824381D01*
X102147619Y-85776762D01*
X102195238Y-85729143D01*
X102242857Y-85633905D01*
X102290476Y-85443429D01*
X102290476Y-85205333D01*
X102242857Y-85014857D01*
X102195238Y-84919619D01*
X102147619Y-84872000D01*
X102052381Y-84824381D01*
X101100000Y-84824381D02*
X101004761Y-84824381D01*
X100909523Y-84872000D01*
X100861904Y-84919619D01*
X100814285Y-85014857D01*
X100766666Y-85205333D01*
X100766666Y-85443429D01*
X100814285Y-85633905D01*
X100861904Y-85729143D01*
X100909523Y-85776762D01*
X101004761Y-85824381D01*
X101100000Y-85824381D01*
X101195238Y-85776762D01*
X101242857Y-85729143D01*
X101290476Y-85633905D01*
X101338095Y-85443429D01*
X101338095Y-85205333D01*
X101290476Y-85014857D01*
X101242857Y-84919619D01*
X101195238Y-84872000D01*
X101100000Y-84824381D01*
X100338095Y-85824381D02*
X100338095Y-84824381D01*
X100242857Y-85443429D02*
X99957142Y-85824381D01*
X99957142Y-85157714D02*
X100338095Y-85538667D01*
X97227047Y-90904381D02*
X97798476Y-90904381D01*
X97512762Y-90904381D02*
X97512762Y-89904381D01*
X97608000Y-90047238D01*
X97703238Y-90142476D01*
X97798476Y-90190095D01*
X96798476Y-90904381D02*
X96798476Y-89904381D01*
X96703238Y-90523429D02*
X96417523Y-90904381D01*
X96417523Y-90237714D02*
X96798476Y-90618667D01*
%LPC*%
D13*
X93721999Y-41826571D02*
X94221999Y-41112286D01*
X94579142Y-41826571D02*
X94579142Y-40326571D01*
X94007714Y-40326571D01*
X93864856Y-40398000D01*
X93793428Y-40469429D01*
X93721999Y-40612286D01*
X93721999Y-40826571D01*
X93793428Y-40969429D01*
X93864856Y-41040857D01*
X94007714Y-41112286D01*
X94579142Y-41112286D01*
X93150571Y-40469429D02*
X93079142Y-40398000D01*
X92936285Y-40326571D01*
X92579142Y-40326571D01*
X92436285Y-40398000D01*
X92364856Y-40469429D01*
X92293428Y-40612286D01*
X92293428Y-40755143D01*
X92364856Y-40969429D01*
X93221999Y-41826571D01*
X92293428Y-41826571D01*
D14*
X119888000Y-54102000D03*
D15*
X122388000Y-54102000D03*
D14*
X129032000Y-54102000D03*
D15*
X126532000Y-54102000D03*
D16*
X115590000Y-68326000D03*
X118090000Y-68326000D03*
X114320000Y-75946000D03*
X116820000Y-75946000D03*
D15*
X116332000Y-86614000D03*
X121332000Y-86614000D03*
X105196000Y-86106000D03*
X107696000Y-86106000D03*
D14*
X132294000Y-83312000D03*
D15*
X129794000Y-83312000D03*
D17*
X118618000Y-40386000D03*
D18*
X128778000Y-40386000D03*
D10*
G36*
X123730000Y-90504000D02*
X123730000Y-87804000D01*
X127730000Y-88404000D01*
X127730000Y-89904000D01*
X123730000Y-90504000D01*
X123730000Y-90504000D01*
G37*
G36*
X133530000Y-87804000D02*
X133530000Y-90504000D01*
X129530000Y-89904000D01*
X129530000Y-88404000D01*
X133530000Y-87804000D01*
X133530000Y-87804000D01*
G37*
D19*
X109220000Y-47148000D03*
X109220000Y-41148000D03*
X104520000Y-44148000D03*
D14*
X93264000Y-55981000D03*
D15*
X93264000Y-58751000D03*
X93264000Y-61521000D03*
X93264000Y-64291000D03*
X93264000Y-67061000D03*
X93264000Y-69831000D03*
X93264000Y-72601000D03*
X93264000Y-75371000D03*
X93264000Y-78141000D03*
X93264000Y-80911000D03*
X93264000Y-83681000D03*
X93264000Y-86451000D03*
X93264000Y-89221000D03*
X90424000Y-57366000D03*
X90424000Y-60136000D03*
X90424000Y-62906000D03*
X90424000Y-65676000D03*
X90424000Y-68446000D03*
X90424000Y-71216000D03*
X90424000Y-73986000D03*
X90424000Y-76756000D03*
X90424000Y-79526000D03*
X90424000Y-82296000D03*
X90424000Y-85066000D03*
X90424000Y-87836000D03*
D20*
X92964000Y-49051000D03*
X92964000Y-96151000D03*
D21*
X114808000Y-54610000D03*
D22*
X112268000Y-54610000D03*
X109728000Y-54610000D03*
X107188000Y-54610000D03*
X104648000Y-54610000D03*
X102108000Y-54610000D03*
D14*
X137622000Y-55775000D03*
D15*
X137622000Y-58545000D03*
X137622000Y-61315000D03*
X137622000Y-64085000D03*
X137622000Y-66855000D03*
X137622000Y-69625000D03*
X137622000Y-72395000D03*
X137622000Y-75165000D03*
X137622000Y-77935000D03*
X137622000Y-80705000D03*
X137622000Y-83475000D03*
X137622000Y-86245000D03*
X137622000Y-89015000D03*
X140462000Y-57160000D03*
X140462000Y-59930000D03*
X140462000Y-62700000D03*
X140462000Y-65470000D03*
X140462000Y-68240000D03*
X140462000Y-71010000D03*
X140462000Y-73780000D03*
X140462000Y-76550000D03*
X140462000Y-79320000D03*
X140462000Y-82090000D03*
X140462000Y-84860000D03*
X140462000Y-87630000D03*
D20*
X137922000Y-95945000D03*
X137922000Y-48845000D03*
D23*
X125984000Y-92964000D03*
X130984000Y-92964000D03*
D24*
X119888000Y-90932000D03*
D25*
X119888000Y-93472000D03*
X119888000Y-96012000D03*
D26*
X114140000Y-71120000D03*
X116840000Y-71120000D03*
X105410000Y-92710000D03*
X108110000Y-92710000D03*
X105584000Y-94996000D03*
X108284000Y-94996000D03*
X102696000Y-94742000D03*
X99996000Y-94742000D03*
X113618000Y-86614000D03*
X110918000Y-86614000D03*
X112776000Y-92202000D03*
X115476000Y-92202000D03*
X113698000Y-95250000D03*
X110998000Y-95250000D03*
X100250000Y-87122000D03*
X102950000Y-87122000D03*
X95758000Y-92202000D03*
X98458000Y-92202000D03*
D24*
X121412000Y-45466000D03*
D25*
X123952000Y-45466000D03*
X126492000Y-45466000D03*
D27*
X116840000Y-65786000D03*
D28*
X114300000Y-63246000D03*
X114300000Y-65786000D03*
X111760000Y-63246000D03*
X111760000Y-65786000D03*
X109220000Y-63246000D03*
X106680000Y-65786000D03*
X109220000Y-65786000D03*
X106680000Y-68326000D03*
X109220000Y-68326000D03*
X106680000Y-70866000D03*
X109220000Y-70866000D03*
X106680000Y-73406000D03*
X109220000Y-73406000D03*
X106680000Y-75946000D03*
X109220000Y-75946000D03*
X106680000Y-78486000D03*
X109220000Y-81026000D03*
X109220000Y-78486000D03*
X111760000Y-81026000D03*
X111760000Y-78486000D03*
X114300000Y-81026000D03*
X114300000Y-78486000D03*
X116840000Y-81026000D03*
X116840000Y-78486000D03*
X119380000Y-81026000D03*
X119380000Y-78486000D03*
X121920000Y-81026000D03*
X124460000Y-78486000D03*
X121920000Y-78486000D03*
X124460000Y-75946000D03*
X121920000Y-75946000D03*
X124460000Y-73406000D03*
X121920000Y-73406000D03*
X124460000Y-70866000D03*
X121920000Y-70866000D03*
X124460000Y-68326000D03*
X121920000Y-68326000D03*
X124460000Y-65786000D03*
X121920000Y-63246000D03*
X121920000Y-65786000D03*
X119380000Y-63246000D03*
X119380000Y-65786000D03*
X116840000Y-63246000D03*
D14*
X99822000Y-97790000D03*
D29*
X107442000Y-90170000D03*
X102362000Y-97790000D03*
X104902000Y-90170000D03*
X104902000Y-97790000D03*
X102362000Y-90170000D03*
X107442000Y-97790000D03*
X99822000Y-90170000D03*
M02*
